<svg width="453" height="51" viewBox="0 0 453 51" fill="none" xmlns="http://www.w3.org/2000/svg">
<path d="M21.4707 29.3008C21.4707 27.862 20.9629 26.7617 19.9473 26C18.9316 25.2214 17.1035 24.4089 14.4629 23.5625C11.8223 22.6992 9.73177 21.8529 8.19141 21.0234C3.99349 18.7552 1.89453 15.6999 1.89453 11.8574C1.89453 9.86003 2.45312 8.08268 3.57031 6.52539C4.70443 4.95117 6.32096 3.72396 8.41992 2.84375C10.5358 1.96354 12.9056 1.52344 15.5293 1.52344C18.1699 1.52344 20.5228 2.00586 22.5879 2.9707C24.653 3.91862 26.2526 5.26432 27.3867 7.00781C28.5378 8.7513 29.1133 10.7318 29.1133 12.9492H21.4961C21.4961 11.2565 20.9629 9.94466 19.8965 9.01367C18.8301 8.06576 17.332 7.5918 15.4023 7.5918C13.5404 7.5918 12.0931 7.98958 11.0605 8.78516C10.028 9.5638 9.51172 10.5964 9.51172 11.8828C9.51172 13.0846 10.1126 14.0918 11.3145 14.9043C12.5332 15.7168 14.319 16.4785 16.6719 17.1895C21.0052 18.4928 24.1621 20.1094 26.1426 22.0391C28.123 23.9688 29.1133 26.3724 29.1133 29.25C29.1133 32.4492 27.903 34.9629 25.4824 36.791C23.0618 38.6022 19.8034 39.5078 15.707 39.5078C12.8633 39.5078 10.2734 38.9915 7.9375 37.959C5.60156 36.9095 3.81576 35.4792 2.58008 33.668C1.36133 31.8568 0.751953 29.7578 0.751953 27.3711H8.39453C8.39453 31.4505 10.832 33.4902 15.707 33.4902C17.5182 33.4902 18.9316 33.1263 19.9473 32.3984C20.9629 31.6536 21.4707 30.6211 21.4707 29.3008ZM56.4905 39C56.1519 38.3398 55.9065 37.5189 55.7541 36.5371C53.9768 38.5176 51.6663 39.5078 48.8225 39.5078C46.1311 39.5078 43.8967 38.7292 42.1194 37.1719C40.359 35.6146 39.4788 33.651 39.4788 31.2812C39.4788 28.3698 40.5536 26.1354 42.7034 24.5781C44.87 23.0208 47.9931 22.2337 52.0725 22.2168H55.4495V20.6426C55.4495 19.373 55.1194 18.3574 54.4592 17.5957C53.816 16.834 52.7919 16.4531 51.387 16.4531C50.1513 16.4531 49.178 16.7493 48.467 17.3418C47.773 17.9342 47.426 18.7467 47.426 19.7793H40.0881C40.0881 18.1882 40.579 16.7155 41.5608 15.3613C42.5426 14.0072 43.9306 12.9492 45.7248 12.1875C47.5191 11.4089 49.5334 11.0195 51.7678 11.0195C55.1532 11.0195 57.8362 11.8743 59.8166 13.584C61.814 15.2767 62.8127 17.6634 62.8127 20.7441V32.6523C62.8297 35.2591 63.1936 37.2311 63.9045 38.5684V39H56.4905ZM50.4221 33.8965C51.5054 33.8965 52.5041 33.6595 53.4182 33.1855C54.3323 32.6947 55.0094 32.043 55.4495 31.2305V26.5078H52.7073C49.0341 26.5078 47.079 27.7773 46.842 30.3164L46.8166 30.748C46.8166 31.6621 47.1383 32.4154 47.7815 33.0078C48.4247 33.6003 49.3049 33.8965 50.4221 33.8965ZM85.188 27.9805L82.5473 30.6211V39H75.2095V0H82.5473V21.6074L83.9692 19.7793L91.0024 11.5273H99.813L89.8852 22.9785L100.676 39H92.2466L85.188 27.9805ZM118.532 4.77344V11.5273H123.229V16.9102H118.532V30.6211C118.532 31.6367 118.727 32.3646 119.116 32.8047C119.505 33.2448 120.25 33.4648 121.35 33.4648C122.163 33.4648 122.882 33.4056 123.509 33.2871V38.8477C122.07 39.2878 120.589 39.5078 119.065 39.5078C113.919 39.5078 111.296 36.9095 111.194 31.7129V16.9102H107.182V11.5273H111.194V4.77344H118.532ZM141.821 39H134.458V11.5273H141.821V39ZM134.026 4.41797C134.026 3.31771 134.39 2.41211 135.118 1.70117C135.863 0.990234 136.87 0.634766 138.14 0.634766C139.392 0.634766 140.391 0.990234 141.136 1.70117C141.881 2.41211 142.253 3.31771 142.253 4.41797C142.253 5.53516 141.872 6.44922 141.11 7.16016C140.366 7.87109 139.375 8.22656 138.14 8.22656C136.904 8.22656 135.905 7.87109 135.144 7.16016C134.399 6.44922 134.026 5.53516 134.026 4.41797ZM203.863 26.6855C203.575 30.6634 202.102 33.7949 199.445 36.0801C196.804 38.3652 193.317 39.5078 188.984 39.5078C184.244 39.5078 180.512 37.9167 177.787 34.7344C175.078 31.5352 173.724 27.151 173.724 21.582V19.3223C173.724 15.7676 174.35 12.6361 175.603 9.92773C176.856 7.2194 178.641 5.14583 180.96 3.70703C183.296 2.2513 186.005 1.52344 189.085 1.52344C193.351 1.52344 196.787 2.66602 199.394 4.95117C202.001 7.23633 203.507 10.444 203.914 14.5742H196.296C196.11 12.1875 195.442 10.4609 194.29 9.39453C193.156 8.3112 191.421 7.76953 189.085 7.76953C186.546 7.76953 184.642 8.68359 183.372 10.5117C182.12 12.3229 181.477 15.1413 181.443 18.9668V21.7598C181.443 25.7546 182.044 28.6745 183.246 30.5195C184.464 32.3646 186.377 33.2871 188.984 33.2871C191.337 33.2871 193.089 32.7539 194.24 31.6875C195.408 30.6042 196.076 28.9368 196.246 26.6855H203.863ZM214 25.0098C214 22.2845 214.524 19.8555 215.574 17.7227C216.623 15.5898 218.13 13.9395 220.093 12.7715C222.074 11.6035 224.368 11.0195 226.974 11.0195C230.681 11.0195 233.703 12.1536 236.039 14.4219C238.392 16.6901 239.703 19.7708 239.974 23.6641L240.025 25.543C240.025 29.7578 238.849 33.1432 236.496 35.6992C234.143 38.2383 230.986 39.5078 227.025 39.5078C223.064 39.5078 219.899 38.2383 217.529 35.6992C215.176 33.1602 214 29.707 214 25.3398V25.0098ZM221.338 25.543C221.338 28.1497 221.828 30.1471 222.81 31.5352C223.792 32.9062 225.197 33.5918 227.025 33.5918C228.802 33.5918 230.19 32.9147 231.189 31.5605C232.188 30.1895 232.687 28.0059 232.687 25.0098C232.687 22.4538 232.188 20.4733 231.189 19.0684C230.19 17.6634 228.786 16.9609 226.974 16.9609C225.18 16.9609 223.792 17.6634 222.81 19.0684C221.828 20.4564 221.338 22.6146 221.338 25.543ZM267.225 39C266.886 38.3398 266.641 37.5189 266.488 36.5371C264.711 38.5176 262.4 39.5078 259.557 39.5078C256.865 39.5078 254.631 38.7292 252.853 37.1719C251.093 35.6146 250.213 33.651 250.213 31.2812C250.213 28.3698 251.288 26.1354 253.437 24.5781C255.604 23.0208 258.727 22.2337 262.807 22.2168H266.184V20.6426C266.184 19.373 265.853 18.3574 265.193 17.5957C264.55 16.834 263.526 16.4531 262.121 16.4531C260.885 16.4531 259.912 16.7493 259.201 17.3418C258.507 17.9342 258.16 18.7467 258.16 19.7793H250.822C250.822 18.1882 251.313 16.7155 252.295 15.3613C253.277 14.0072 254.665 12.9492 256.459 12.1875C258.253 11.4089 260.268 11.0195 262.502 11.0195C265.887 11.0195 268.57 11.8743 270.551 13.584C272.548 15.2767 273.547 17.6634 273.547 20.7441V32.6523C273.564 35.2591 273.928 37.2311 274.639 38.5684V39H267.225ZM261.156 33.8965C262.24 33.8965 263.238 33.6595 264.152 33.1855C265.066 32.6947 265.743 32.043 266.184 31.2305V26.5078H263.441C259.768 26.5078 257.813 27.7773 257.576 30.3164L257.551 30.748C257.551 31.6621 257.872 32.4154 258.516 33.0078C259.159 33.6003 260.039 33.8965 261.156 33.8965ZM293.688 39H286.324V0H293.688V39ZM341.612 2.03125H349.229V27.625C349.229 29.9779 348.704 32.0599 347.655 33.8711C346.622 35.6654 345.158 37.0534 343.262 38.0352C341.367 39.0169 339.225 39.5078 336.839 39.5078C332.928 39.5078 329.882 38.5176 327.698 36.5371C325.514 34.5397 324.423 31.7214 324.423 28.082H332.09C332.09 29.8932 332.471 31.2305 333.233 32.0938C333.995 32.957 335.197 33.3887 336.839 33.3887C338.294 33.3887 339.454 32.8893 340.317 31.8906C341.18 30.8919 341.612 29.4701 341.612 27.625V2.03125ZM377.952 39C377.613 38.3398 377.368 37.5189 377.216 36.5371C375.438 38.5176 373.128 39.5078 370.284 39.5078C367.593 39.5078 365.358 38.7292 363.581 37.1719C361.821 35.6146 360.94 33.651 360.94 31.2812C360.94 28.3698 362.015 26.1354 364.165 24.5781C366.332 23.0208 369.455 22.2337 373.534 22.2168H376.911V20.6426C376.911 19.373 376.581 18.3574 375.921 17.5957C375.278 16.834 374.253 16.4531 372.849 16.4531C371.613 16.4531 370.64 16.7493 369.929 17.3418C369.235 17.9342 368.888 18.7467 368.888 19.7793H361.55C361.55 18.1882 362.041 16.7155 363.022 15.3613C364.004 14.0072 365.392 12.9492 367.186 12.1875C368.981 11.4089 370.995 11.0195 373.229 11.0195C376.615 11.0195 379.298 11.8743 381.278 13.584C383.276 15.2767 384.274 17.6634 384.274 20.7441V32.6523C384.291 35.2591 384.655 37.2311 385.366 38.5684V39H377.952ZM371.884 33.8965C372.967 33.8965 373.966 33.6595 374.88 33.1855C375.794 32.6947 376.471 32.043 376.911 31.2305V26.5078H374.169C370.496 26.5078 368.541 27.7773 368.304 30.3164L368.278 30.748C368.278 31.6621 368.6 32.4154 369.243 33.0078C369.886 33.6003 370.766 33.8965 371.884 33.8965ZM406.523 28.6152L411.601 11.5273H419.472L408.427 43.2656L407.818 44.7129C406.176 48.3014 403.467 50.0957 399.693 50.0957C398.626 50.0957 397.543 49.9349 396.443 49.6133V44.0527L397.56 44.0781C398.948 44.0781 399.98 43.8665 400.657 43.4434C401.351 43.0202 401.893 42.3177 402.282 41.3359L403.146 39.0762L393.523 11.5273H401.419L406.523 28.6152ZM444.64 39C444.301 38.3398 444.056 37.5189 443.904 36.5371C442.126 38.5176 439.816 39.5078 436.972 39.5078C434.281 39.5078 432.046 38.7292 430.269 37.1719C428.509 35.6146 427.628 33.651 427.628 31.2812C427.628 28.3698 428.703 26.1354 430.853 24.5781C433.02 23.0208 436.143 22.2337 440.222 22.2168H443.599V20.6426C443.599 19.373 443.269 18.3574 442.609 17.5957C441.966 16.834 440.941 16.4531 439.536 16.4531C438.301 16.4531 437.328 16.7493 436.617 17.3418C435.923 17.9342 435.576 18.7467 435.576 19.7793H428.238C428.238 18.1882 428.729 16.7155 429.71 15.3613C430.692 14.0072 432.08 12.9492 433.874 12.1875C435.669 11.4089 437.683 11.0195 439.917 11.0195C443.303 11.0195 445.986 11.8743 447.966 13.584C449.964 15.2767 450.962 17.6634 450.962 20.7441V32.6523C450.979 35.2591 451.343 37.2311 452.054 38.5684V39H444.64ZM438.572 33.8965C439.655 33.8965 440.654 33.6595 441.568 33.1855C442.482 32.6947 443.159 32.043 443.599 31.2305V26.5078H440.857C437.184 26.5078 435.229 27.7773 434.992 30.3164L434.966 30.748C434.966 31.6621 435.288 32.4154 435.931 33.0078C436.574 33.6003 437.454 33.8965 438.572 33.8965Z" fill="white"/>
</svg>
