<svg width="41" height="49" viewBox="0 0 41 49" fill="none" xmlns="http://www.w3.org/2000/svg">
<path d="M27.9492 35.1523C27.9492 33.6341 27.1901 32.4453 25.6719 31.5859C24.1823 30.6979 21.776 29.9102 18.4531 29.2227C7.39583 26.9023 1.86719 22.2044 1.86719 15.1289C1.86719 11.0039 3.57161 7.56641 6.98047 4.81641C10.418 2.03776 14.901 0.648438 20.4297 0.648438C26.3307 0.648438 31.043 2.03776 34.5664 4.81641C38.1185 7.59505 39.8945 11.2044 39.8945 15.6445H27.4766C27.4766 13.8685 26.9036 12.4076 25.7578 11.2617C24.612 10.0872 22.8216 9.5 20.3867 9.5C18.2956 9.5 16.6771 9.97266 15.5312 10.918C14.3854 11.8633 13.8125 13.0664 13.8125 14.5273C13.8125 15.9023 14.457 17.0195 15.7461 17.8789C17.0638 18.7096 19.2695 19.4401 22.3633 20.0703C25.457 20.6719 28.0638 21.3594 30.1836 22.1328C36.7435 24.5391 40.0234 28.707 40.0234 34.6367C40.0234 38.8763 38.2044 42.3138 34.5664 44.9492C30.9284 47.556 26.2305 48.8594 20.4727 48.8594C16.5768 48.8594 13.1107 48.1719 10.0742 46.7969C7.06641 45.3932 4.70312 43.4883 2.98438 41.082C1.26562 38.6471 0.40625 36.026 0.40625 33.2188H12.1797C12.2943 35.4245 13.1107 37.1146 14.6289 38.2891C16.1471 39.4635 18.181 40.0508 20.7305 40.0508C23.1081 40.0508 24.8984 39.6068 26.1016 38.7188C27.3333 37.8021 27.9492 36.6133 27.9492 35.1523Z" fill="white"/>
</svg>
